<?xml version="1.0" encoding="UTF-8"?>
<svg width="384px" height="82px" viewBox="0 0 384 82" version="1.1" xmlns="http://www.w3.org/2000/svg" xmlns:xlink="http://www.w3.org/1999/xlink">
    <title>combined hexagon with asce blue</title>
    <defs>
        <polygon id="path-1" points="0.06 0.938 206.728 0.938 206.728 82 0.06 82"></polygon>
    </defs>
    <g transform="scale(.2949640288)">
      <g id="Layer_1" transform="translate(-20.000000, -606.000000)" stroke="#ffb800" stroke-width="1.307" fill="none" fill-rule="evenodd" opacity="1">
        <path d="M100.733,883.21 L21,745.103 L100.733,607 L260.202,607 L339.935,745.103 L260.202,883.21 L100.733,883.21 Z M259.002,618.518 L329.362,749.821 L250.832,876.407 L101.937,871.693 L31.576,740.39 L110.107,613.801 L259.002,618.518 Z M257.799,630.035 L318.787,754.538 L241.459,869.606 L103.138,860.176 L42.15,735.672 L119.478,620.6 L257.799,630.035 Z M256.595,641.552 L308.207,759.256 L232.086,862.811 L104.34,848.654 L52.728,730.955 L128.853,627.404 L256.595,641.552 Z M255.392,653.071 L297.636,763.974 L222.713,856.008 L105.546,837.142 L63.302,726.238 L138.225,634.205 L255.392,653.071 Z M254.189,664.588 L287.056,768.688 L213.34,849.208 L106.747,825.62 L73.875,721.521 L147.596,641.004 L254.189,664.588 Z M252.986,676.105 L276.481,773.405 L203.967,842.408 L107.949,814.103 L84.454,716.803 L156.972,647.804 L252.986,676.105 Z M251.783,687.622 L265.906,778.122 L194.594,835.604 L109.155,802.585 L95.032,712.085 L166.344,654.604 L251.783,687.622 Z M250.58,699.14 L255.331,782.84 L185.222,828.805 L110.357,791.069 L105.606,707.369 L175.719,661.404 L250.58,699.14 Z M249.377,710.658 L244.755,787.558 L175.849,822.005 L111.563,779.552 L116.184,702.651 L185.091,668.204 L249.377,710.658 Z M248.173,722.175 L234.18,792.275 L166.475,815.201 L112.765,768.034 L126.758,697.934 L194.462,675.008 L248.173,722.175 Z M246.97,733.693 L223.601,796.994 L157.099,808.402 L113.966,756.518 L137.336,693.217 L203.838,681.809 L246.97,733.693 Z M115.17,744.998 L147.912,688.501 L213.207,688.61 L245.765,745.212 L213.027,801.709 L147.728,801.6 L115.17,744.998 Z" id="hexagon"></path>
        <path d="M341,606 L426,745 L341,884" stroke-width="2.614"></path>
      </g>
    </g>
    <g id="ASCE_logo_blue" stroke="none" stroke-width="1" fill="none" fill-rule="evenodd" transform="translate(129,0)">
        <path d="M124.762,32.994 L119.424,31.464 C115.794,30.341 110.138,28.605 110.138,24.114 C110.138,19.825 115.261,17.681 119.104,17.681 C124.227,17.681 129.137,19.724 132.978,22.786 L141.303,7.268 C134.153,3.387 124.227,0.938 116.116,0.938 C99.998,0.938 88.363,11.147 88.363,26.767 C88.363,41.673 97.009,44.94 110.138,48.514 C114.621,49.738 122.838,51.678 122.838,57.293 C122.838,62.703 117.609,65.053 112.699,65.053 C105.548,65.053 99.358,61.479 94.128,57.089 L85.161,73.22 C93.38,78.732 103.306,82 113.448,82 C121.559,82 129.992,79.857 136.288,74.751 C142.693,69.544 144.613,61.683 144.613,54.025 C144.613,41.57 135.968,36.16 124.762,32.994" id="Fill-1" fill="#005dab"></path>
        <g>
          <mask id="mask-2" fill="white">
            <use xlink:href="#path-1"></use>
          </mask>
          <g id="Clip-3"></g>
          <path d="M156.991,13.392 C149.306,20.948 145.142,31.056 145.142,41.57 C145.142,53.005 149.197,63.011 158.057,70.667 C166.382,77.915 177.057,82 188.263,82 C194.776,82 199.792,80.467 206.728,78.426 L206.728,77.531 L197.551,60.819 C194.738,61.948 191.719,62.601 188.692,62.601 C175.667,62.601 166.917,53.821 166.917,41.673 C166.917,29.729 175.562,20.336 188.372,20.336 C191.496,20.336 194.565,20.933 197.402,22.029 L206.728,5.042 L206.728,4.817 C200.538,2.367 194.347,0.938 187.623,0.938 C176.308,0.938 164.887,5.634 156.991,13.392" id="Fill-2" fill="#005dab" mask="url(#mask-2)"></path>
          <path d="M64.026,79.957 C63.245,80.056 86.262,79.791 86.262,79.791 L56.048,3.135 L33.329,3.058 L15.784,46.157 L37.612,45.85 L44.611,25.391 L51.829,47.125 L64.228,50.071 L64.593,51.663 C64.593,51.663 26.779,46.219 0,53.467 L0.125,54.066 C0.125,54.066 41.689,48.039 65.533,56.69 L65.778,57.871 C65.778,57.871 32.467,51.763 1.318,59.977 C1.486,60.775 1.509,60.892 1.509,60.892 C1.509,60.892 33.762,54.068 66.918,62.898 L66.976,63.182 L67.202,64.28 C67.202,64.28 42.407,58.174 2.646,66.385 L2.832,67.286 C2.832,67.286 5.201,66.965 7.597,66.888 L2.227,79.957 L24.428,79.957 L29.978,66.583 C29.978,66.583 46.541,64.236 59.139,67.041 L64.026,79.957" id="Fill-4" fill="#005dab" mask="url(#mask-2)"></path>
        </g>
        <polyline id="Fill-6" fill="#005dab" points="230.015 19.928 230.015 32.79 253.605 32.79 253.605 49.738 230.015 49.738 230.015 63.011 254.885 63.011 254.885 79.957 209.095 79.957 209.095 2.98 254.885 2.98 254.885 19.928 230.015 19.928"></polyline>
    </g>
</svg>