<svg id="Layer_1" data-name="Layer 1" xmlns="http://www.w3.org/2000/svg" viewBox="0 0 380 230.1"><defs><style>.cls-1{fill:#fff;}</style></defs><title>chat-icon</title><path class="cls-1" d="M198.93,233.19c.46-27.65,17.47-50.84,43.43-66.32a184.11,184.11,0,0,0-53.46-7.77c-73,0-132.24,40.45-132.24,90.35,0,43.2,44.37,79.24,103.62,88.19C159.75,360,133.79,385,133.79,385c33.74,0,59.57-32.84,68.35-45.64,30.12-2,57.18-11,77.92-24.53C234,303.12,199.51,272.67,198.93,233.19Zm-85.85,38.58a14.47,14.47,0,1,1,14.47-14.47A14.47,14.47,0,0,1,113.08,271.77Zm49.44,0A14.47,14.47,0,1,1,177,257.31,14.47,14.47,0,0,1,162.52,271.77Z" transform="translate(-56.67 -154.9)"/><path class="cls-1" d="M436.67,233.19c0-43.23-51.31-78.3-114.58-78.3S207.53,190,207.53,233.19c0,40.58,45.21,74,103.08,77.89,7.61,11.07,30,39.56,59.22,39.56,0,0-22.48-21.67-23-41C398.21,301.84,436.67,270.62,436.67,233.19ZM273.08,251.77a14.47,14.47,0,1,1,14.47-14.47A14.47,14.47,0,0,1,273.08,251.77Zm49.44,0A14.47,14.47,0,1,1,337,237.31,14.47,14.47,0,0,1,322.52,251.77Zm49.44,0a14.47,14.47,0,1,1,14.47-14.47A14.47,14.47,0,0,1,372,251.77Z" transform="translate(-56.67 -154.9)"/></svg>